<?xml version="1.0"?>
<!-- Created by MetaPost 2.00 on 2020.04.16:0941 -->
<svg version="1.1" xmlns="http://www.w3.org/2000/svg" xmlns:xlink="http://www.w3.org/1999/xlink" width="61.692902" height="61.692902" viewBox="0 0 61.692902 61.692902">
<!-- Original BoundingBox: -30.846451 -30.846451 30.846451 30.846451 -->
  <path d="M1.653549 30.000000C1.653549 45.655304,14.344696 58.346451,30.000000 58.346451C45.655304 58.346451,58.346451 45.655304,58.346451 30.000000C58.346451 17.868347,38.265732 13.468506,30.000000 30.000000C21.734268 46.531494,1.653549 42.131653,1.653549 30.000000Z" style="fill: rgb(0.000000%,0.000000%,0.000000%);stroke: none;"></path>
  <path d="M1.653549 30.000000C1.653549 45.655304,14.344696 58.346451,30.000000 58.346451C45.655304 58.346451,58.346451 45.655304,58.346451 30.000000C58.346451 14.344696,45.655304 1.653549,30.000000 1.653549C14.344696 1.653549,1.653549 14.344696,1.653549 30.000000Z" style="stroke:rgb(0.000000%,0.000000%,0.000000%); stroke-width: 0.500000;stroke-linecap: round;stroke-linejoin: round;stroke-miterlimit: 10.000000;fill: none;"></path>
  <path d="M-0.596451 60.596451L60.596451 60.596451L60.596451 -0.596451L-0.596451 -0.596451Z" style="stroke:rgb(0.000000%,0.000000%,0.000000%); stroke-width: 0.500000;stroke-linecap: round;stroke-linejoin: round;stroke-miterlimit: 10.000000;fill: none;"></path>
</svg>
