<?xml version="1.0"?>
<!-- Created by MetaPost 2.00 on 2020.04.16:1021 -->
<svg version="1.1" xmlns="http://www.w3.org/2000/svg" xmlns:xlink="http://www.w3.org/1999/xlink" width="73.722549" height="75.430756" viewBox="0 0 73.722549 75.430756">
<!-- Original BoundingBox: -37.779099 -36.920715 35.943451 38.510040 -->
  <path d="M37.000000 38.000000L65.347778 38.000000L65.347778 9.652222L37.000000 9.652222Z" style="fill: rgb(100.000000%,0.000000%,0.000000%);stroke: none;"></path>
  <path d="M37.000000 38.000000L61.055664 23.545624L46.601288 -0.510040L22.545624 13.944336Z" style="fill: rgb(99.000549%,0.000000%,0.999451%);stroke: none;"></path>
  <path d="M37.000000 38.000000L50.042191 13.470932L25.513123 0.428741L12.470932 24.957809Z" style="fill: rgb(98.001099%,0.000000%,1.998901%);stroke: none;"></path>
  <path d="M37.000000 38.000000L35.560852 10.540421L8.101273 11.979568L9.540421 39.439148Z" style="fill: rgb(97.001648%,0.000000%,2.998352%);stroke: none;"></path>
  <path d="M37.000000 38.000000L21.782303 15.438599L-0.779099 30.656296L14.438599 53.217697Z" style="fill: rgb(96.002197%,0.000000%,3.997803%);stroke: none;"></path>
  <path d="M37.000000 38.000000L12.592697 26.618607L1.211304 51.025909L25.618607 62.407303Z" style="fill: rgb(95.002747%,0.000000%,4.997253%);stroke: none;"></path>
  <path d="M37.000000 38.000000L10.499054 40.785202L13.284256 67.286148L39.785202 64.500946Z" style="fill: rgb(94.003296%,0.000000%,5.996704%);stroke: none;"></path>
  <path d="M37.000000 38.000000L15.945374 53.866089L31.811462 74.920715L52.866089 59.054626Z" style="fill: rgb(93.003845%,0.000000%,6.996155%);stroke: none;"></path>
  <path d="M37.000000 38.000000L27.230362 62.180939L51.411301 71.950577L61.180939 47.769638Z" style="fill: rgb(92.004395%,0.000000%,7.995605%);stroke: none;"></path>
  <path d="M37.000000 38.000000L41.035416 63.478821L66.514236 59.443405L62.478821 33.964584Z" style="fill: rgb(91.004944%,0.000000%,8.995056%);stroke: none;"></path>
  <path d="M37.000000 38.000000L53.399551 57.543900L72.943451 41.144348L56.543900 21.600449Z" style="fill: rgb(90.005493%,0.000000%,9.994507%);stroke: none;"></path>
  <path d="M37.000000 38.000000L60.855179 46.213760L69.068939 22.358582L45.213760 14.144821Z" style="fill: rgb(89.006042%,0.000000%,10.993958%);stroke: none;"></path>
  <path d="M37.000000 38.000000L61.400955 32.813309L56.214264 8.412354L31.813309 13.599045Z" style="fill: rgb(88.006592%,0.000000%,11.993408%);stroke: none;"></path>
  <path d="M37.000000 38.000000L55.037064 21.180344L38.217407 3.143280L20.180344 19.962936Z" style="fill: rgb(87.007141%,0.000000%,12.992859%);stroke: none;"></path>
  <path d="M37.000000 38.000000L43.719727 14.565414L20.285141 7.845688L13.565414 31.280273Z" style="fill: rgb(86.007690%,0.000000%,13.992310%);stroke: none;"></path>
  <path d="M37.000000 38.000000L30.763580 14.725403L7.488983 20.961823L13.725403 44.236420Z" style="fill: rgb(85.008240%,0.000000%,14.991760%);stroke: none;"></path>
  <path d="M37.000000 38.000000L19.870865 21.458755L3.329620 38.587891L20.458755 55.129135Z" style="fill: rgb(84.008789%,0.000000%,15.991211%);stroke: none;"></path>
  <path d="M37.000000 38.000000L14.074493 32.707352L8.781845 55.632858L31.707352 60.925507Z" style="fill: rgb(83.009338%,0.000000%,16.990662%);stroke: none;"></path>
  <path d="M37.000000 38.000000L14.892685 45.183243L22.075928 67.290558L44.183243 60.107315Z" style="fill: rgb(82.009888%,0.000000%,17.990112%);stroke: none;"></path>
  <path d="M37.000000 38.000000L21.935944 55.329544L39.265488 70.393600L54.329544 53.064056Z" style="fill: rgb(81.010437%,0.000000%,18.989563%);stroke: none;"></path>
  <path d="M37.000000 38.000000L33.062042 60.333557L55.395599 64.271515L59.333557 41.937958Z" style="fill: rgb(80.010986%,0.000000%,19.989014%);stroke: none;"></path>
  <path d="M37.000000 38.000000L45.025558 58.907257L65.932816 50.881699L57.907257 29.974442Z" style="fill: rgb(79.011536%,0.000000%,20.988464%);stroke: none;"></path>
  <path d="M37.000000 38.000000L54.423889 51.613052L68.036942 34.189163L50.613052 20.576111Z" style="fill: rgb(78.012085%,0.000000%,21.987915%);stroke: none;"></path>
  <path d="M37.000000 38.000000L58.665253 40.660202L61.325455 18.994949L39.660202 16.334747Z" style="fill: rgb(77.012634%,0.000000%,22.987366%);stroke: none;"></path>
  <path d="M37.000000 38.000000L56.681671 29.237106L47.918777 9.555435L28.237106 18.318329Z" style="fill: rgb(76.013184%,0.000000%,23.986816%);stroke: none;"></path>
  <path d="M37.000000 38.000000L49.194748 20.584122L31.778870 8.389374L19.584122 25.805252Z" style="fill: rgb(75.013733%,0.000000%,24.986267%);stroke: none;"></path>
  <path d="M37.000000 38.000000L38.463440 17.073853L17.537292 15.610413L16.073853 36.536560Z" style="fill: rgb(74.014282%,0.000000%,25.985718%);stroke: none;"></path>
  <path d="M37.000000 38.000000L27.605087 19.561615L9.166702 28.956528L18.561615 47.394913Z" style="fill: rgb(73.014832%,0.000000%,26.985168%);stroke: none;"></path>
  <path d="M37.000000 38.000000L19.690903 27.184067L8.874969 44.493164L26.184067 55.309097Z" style="fill: rgb(72.015381%,0.000000%,27.984619%);stroke: none;"></path>
  <path d="M37.000000 38.000000L16.876144 37.648666L16.524811 57.772522L36.648666 58.123856Z" style="fill: rgb(71.015930%,0.000000%,28.984070%);stroke: none;"></path>
  <path d="M37.000000 38.000000L19.815018 47.921722L29.736740 65.106705L46.921722 55.184982Z" style="fill: rgb(70.016479%,0.000000%,29.983521%);stroke: none;"></path>
  <path d="M37.000000 38.000000L27.517288 55.107513L44.624802 64.590225L54.107513 47.482712Z" style="fill: rgb(69.017029%,0.000000%,30.982971%);stroke: none;"></path>
  <path d="M37.000000 38.000000L37.672684 57.264725L56.937408 56.592041L56.264725 37.327316Z" style="fill: rgb(68.017578%,0.000000%,31.982422%);stroke: none;"></path>
  <path d="M37.000000 38.000000L47.344208 53.928848L63.273056 43.584641L52.928848 27.655792Z" style="fill: rgb(67.018127%,0.000000%,32.981873%);stroke: none;"></path>
  <path d="M37.000000 38.000000L53.815918 46.201691L62.017609 29.385773L45.201691 21.184082Z" style="fill: rgb(66.018677%,0.000000%,33.981323%);stroke: none;"></path>
  <path d="M37.000000 38.000000L55.356049 36.394012L53.750061 18.037964L35.394012 19.643951Z" style="fill: rgb(65.019226%,0.000000%,34.980774%);stroke: none;"></path>
  <path d="M37.000000 38.000000L51.677719 27.336090L41.013809 12.658371L26.336090 23.322281Z" style="fill: rgb(64.019775%,0.000000%,35.980225%);stroke: none;"></path>
  <path d="M37.000000 38.000000L43.978119 21.560669L27.538788 14.582550L20.560669 31.021881Z" style="fill: rgb(63.020325%,0.000000%,36.979675%);stroke: none;"></path>
  <path d="M37.000000 38.000000L34.553909 20.595474L17.149384 23.041565L19.595474 40.446091Z" style="fill: rgb(62.020874%,0.000000%,37.979126%);stroke: none;"></path>
  <path d="M37.000000 38.000000L26.117737 24.561493L12.679230 35.443756L23.561493 48.882263Z" style="fill: rgb(61.021423%,0.000000%,38.978577%);stroke: none;"></path>
  <path d="M37.000000 38.000000L21.016998 32.182602L15.199600 48.165604L31.182602 53.983002Z" style="fill: rgb(60.021973%,0.000000%,39.978027%);stroke: none;"></path>
  <path d="M37.000000 38.000000L20.582077 41.191345L23.773422 57.609268L40.191345 54.417923Z" style="fill: rgb(59.022522%,0.000000%,40.977478%);stroke: none;"></path>
  <path d="M37.000000 38.000000L24.781357 49.001617L35.782974 61.220261L48.001617 50.218643Z" style="fill: rgb(58.023071%,0.000000%,41.976929%);stroke: none;"></path>
  <path d="M37.000000 38.000000L32.275757 53.452103L47.727859 58.176346L52.452103 42.724243Z" style="fill: rgb(57.023621%,0.000000%,42.976379%);stroke: none;"></path>
  <path d="M37.000000 38.000000L40.840546 53.403137L56.243683 49.562592L52.403137 34.159454Z" style="fill: rgb(56.024170%,0.000000%,43.975830%);stroke: none;"></path>
  <path d="M37.000000 38.000000L48.024704 49.024704L59.049408 38.000000L48.024704 26.975296Z" style="fill: rgb(55.024719%,0.000000%,44.975281%);stroke: none;"></path>
  <path d="M37.000000 38.000000L51.853027 41.703384L55.556412 26.850357L40.703384 23.146973Z" style="fill: rgb(54.025269%,0.000000%,45.974731%);stroke: none;"></path>
  <path d="M37.000000 38.000000L51.367737 33.607285L46.975021 19.239548L32.607285 23.632263Z" style="fill: rgb(53.025818%,0.000000%,46.974182%);stroke: none;"></path>
  <path d="M37.000000 38.000000L46.863525 27.045364L35.908890 17.181839L26.045364 28.136475Z" style="fill: rgb(52.026367%,0.000000%,47.973633%);stroke: none;"></path>
  <path d="M37.000000 38.000000L39.758621 23.808243L25.566864 21.049622L22.808243 35.241379Z" style="fill: rgb(51.026917%,0.000000%,48.973083%);stroke: none;"></path>
  <path d="M37.000000 38.000000L32.152161 24.680832L18.832993 29.528671L23.680832 42.847839Z" style="fill: rgb(50.027466%,0.000000%,49.972534%);stroke: none;"></path>
  <path d="M37.000000 38.000000L26.205124 29.258514L17.463638 40.053391L28.258514 48.794876Z" style="fill: rgb(49.028015%,0.000000%,50.971985%);stroke: none;"></path>
  <path d="M37.000000 38.000000L23.525528 36.106247L21.631775 49.580719L35.106247 51.474472Z" style="fill: rgb(48.028564%,0.000000%,51.971436%);stroke: none;"></path>
  <path d="M37.000000 38.000000L24.735733 43.205902L29.941635 55.470169L42.205902 50.264267Z" style="fill: rgb(47.029114%,0.000000%,52.970886%);stroke: none;"></path>
  <path d="M37.000000 38.000000L29.335312 48.549622L39.884933 56.214310L47.549622 45.664688Z" style="fill: rgb(46.029663%,0.000000%,53.970337%);stroke: none;"></path>
  <path d="M37.000000 38.000000L35.888168 50.708038L48.596207 51.819870L49.708038 39.111832Z" style="fill: rgb(45.030212%,0.000000%,54.969788%);stroke: none;"></path>
  <path d="M37.000000 38.000000L42.467789 49.210602L53.678391 43.742813L48.210602 32.532211Z" style="fill: rgb(44.030762%,0.000000%,55.969238%);stroke: none;"></path>
  <path d="M37.000000 38.000000L47.222992 44.638809L53.861801 34.415817L43.638809 27.777008Z" style="fill: rgb(43.031311%,0.000000%,56.968689%);stroke: none;"></path>
  <path d="M37.000000 38.000000L48.898804 38.415482L49.314285 26.516678L37.415482 26.101196Z" style="fill: rgb(42.031860%,0.000000%,57.968140%);stroke: none;"></path>
  <path d="M37.000000 38.000000L47.165329 32.365341L41.530670 22.200012L31.365341 27.834671Z" style="fill: rgb(41.032410%,0.000000%,58.967590%);stroke: none;"></path>
  <path d="M37.000000 38.000000L42.669556 28.180008L32.849564 22.510452L27.180008 32.330444Z" style="fill: rgb(40.032959%,0.000000%,59.967041%);stroke: none;"></path>
  <path d="M37.000000 38.000000L36.807007 26.946060L25.753067 27.139053L25.946060 38.192993Z" style="fill: rgb(39.033508%,0.000000%,60.966492%);stroke: none;"></path>
  <path d="M37.000000 38.000000L31.291595 28.864639L22.156235 34.573044L27.864639 43.708405Z" style="fill: rgb(38.034058%,0.000000%,61.965942%);stroke: none;"></path>
  <path d="M37.000000 38.000000L27.654526 33.238190L22.892715 42.583664L32.238190 47.345474Z" style="fill: rgb(37.034607%,0.000000%,62.965393%);stroke: none;"></path>
  <path d="M37.000000 38.000000L26.819717 38.711945L27.531662 48.892227L37.711945 48.180283Z" style="fill: rgb(36.035156%,0.000000%,63.964844%);stroke: none;"></path>
  <path d="M37.000000 38.000000L28.872589 43.690887L34.563477 51.818298L42.690887 46.127411Z" style="fill: rgb(35.035706%,0.000000%,64.964294%);stroke: none;"></path>
  <path d="M37.000000 38.000000L33.079758 46.804962L41.884720 50.725204L45.804962 41.920242Z" style="fill: rgb(34.036255%,0.000000%,65.963745%);stroke: none;"></path>
  <path d="M37.000000 38.000000L38.140091 47.285110L47.425201 46.145020L46.285110 36.859909Z" style="fill: rgb(33.036804%,0.000000%,66.963196%);stroke: none;"></path>
  <path d="M37.000000 38.000000L42.584839 45.148270L49.733109 39.563431L44.148270 32.415161Z" style="fill: rgb(32.037354%,0.000000%,67.962646%);stroke: none;"></path>
  <path d="M37.000000 38.000000L45.204117 41.149277L48.353394 32.945160L40.149277 29.795883Z" style="fill: rgb(31.037903%,0.000000%,68.962097%);stroke: none;"></path>
  <path d="M37.000000 38.000000L45.375092 36.523270L43.898361 28.148178L35.523270 29.624908Z" style="fill: rgb(30.038452%,0.000000%,69.961548%);stroke: none;"></path>
  <path d="M37.000000 38.000000L43.204407 32.606689L37.811096 26.402283L31.606689 31.795593Z" style="fill: rgb(29.039001%,0.000000%,70.960999%);stroke: none;"></path>
  <path d="M37.000000 38.000000L39.452820 30.451157L31.903976 27.998337L29.451157 35.547180Z" style="fill: rgb(28.039551%,0.000000%,71.960449%);stroke: none;"></path>
  <path d="M37.000000 38.000000L35.278290 30.542313L27.820602 32.264023L29.542313 39.721710Z" style="fill: rgb(27.040100%,0.000000%,72.959900%);stroke: none;"></path>
  <path d="M37.000000 38.000000L31.880096 32.698120L26.578217 37.818024L31.698120 43.119904Z" style="fill: rgb(26.040649%,0.000000%,73.959351%);stroke: none;"></path>
  <path d="M37.000000 38.000000L30.154526 36.165756L28.320282 43.011230L35.165756 44.845474Z" style="fill: rgb(25.041199%,0.000000%,74.958801%);stroke: none;"></path>
  <path d="M37.000000 38.000000L30.460114 39.875275L32.335388 46.415161L38.875275 44.539886Z" style="fill: rgb(24.041748%,0.000000%,75.958252%);stroke: none;"></path>
  <path d="M37.000000 38.000000L32.553421 42.768417L37.321838 47.214996L41.768417 42.446579Z" style="fill: rgb(23.042297%,0.000000%,76.957703%);stroke: none;"></path>
  <path d="M37.000000 38.000000L35.703323 44.100235L41.803558 45.396912L43.100235 39.296677Z" style="fill: rgb(22.042847%,0.000000%,77.957153%);stroke: none;"></path>
  <path d="M37.000000 38.000000L38.938080 43.628754L44.566833 41.690674L42.628754 36.061920Z" style="fill: rgb(21.043396%,0.000000%,78.956604%);stroke: none;"></path>
  <path d="M37.000000 38.000000L41.343094 41.644348L44.987442 37.301254L40.644348 33.656906Z" style="fill: rgb(20.043945%,0.000000%,79.956055%);stroke: none;"></path>
  <path d="M37.000000 38.000000L42.319748 38.842560L43.162308 33.522812L37.842560 32.680252Z" style="fill: rgb(19.044495%,0.000000%,80.955505%);stroke: none;"></path>
  <path d="M37.000000 38.000000L41.731049 36.088547L39.819595 31.357498L35.088547 33.268951Z" style="fill: rgb(18.045044%,0.000000%,81.954956%);stroke: none;"></path>
  <path d="M37.000000 38.000000L39.900253 34.151306L36.051559 31.251053L33.151306 35.099747Z" style="fill: rgb(17.045593%,0.000000%,82.954407%);stroke: none;"></path>
  <path d="M37.000000 38.000000L37.474075 33.489197L32.963272 33.015121L32.489197 37.525925Z" style="fill: rgb(16.046143%,0.000000%,83.953857%);stroke: none;"></path>
  <path d="M37.000000 38.000000L35.202942 34.146210L31.349152 35.943268L33.146210 39.797058Z" style="fill: rgb(15.046692%,0.000000%,84.953308%);stroke: none;"></path>
  <path d="M37.000000 38.000000L33.709793 35.780746L31.490540 39.070953L34.780746 41.290207Z" style="fill: rgb(14.047241%,0.000000%,85.952759%);stroke: none;"></path>
  <path d="M37.000000 38.000000L33.319855 37.807129L33.126984 41.487274L36.807129 41.680145Z" style="fill: rgb(13.047791%,0.000000%,86.952209%);stroke: none;"></path>
  <path d="M37.000000 38.000000L33.996445 39.597000L35.593445 42.600555L38.597000 41.003555Z" style="fill: rgb(12.048340%,0.000000%,87.951660%);stroke: none;"></path>
  <path d="M37.000000 38.000000L35.393951 40.672852L38.066803 42.278900L39.672852 39.606049Z" style="fill: rgb(11.048889%,0.000000%,88.951111%);stroke: none;"></path>
  <path d="M37.000000 38.000000L37.000000 40.834778L39.834778 40.834778L39.834778 38.000000Z" style="fill: rgb(10.049438%,0.000000%,89.950562%);stroke: none;"></path>
  <path d="M37.000000 38.000000L38.314041 40.186874L40.500916 38.872833L39.186874 36.685959Z" style="fill: rgb(9.049988%,0.000000%,90.950012%);stroke: none;"></path>
  <path d="M37.000000 38.000000L39.002380 39.064667L40.067047 37.062286L38.064667 35.997620Z" style="fill: rgb(8.050537%,0.000000%,91.949463%);stroke: none;"></path>
  <path d="M37.000000 38.000000L38.981613 37.896149L38.877762 35.914536L36.896149 36.018387Z" style="fill: rgb(7.051086%,0.000000%,92.948914%);stroke: none;"></path>
  <path d="M37.000000 38.000000L38.410080 37.048889L37.458969 35.638809L36.048889 36.589920Z" style="fill: rgb(6.051636%,0.000000%,93.948364%);stroke: none;"></path>
  <path d="M37.000000 38.000000L37.599014 36.715408L36.314423 36.116394L35.715408 37.400986Z" style="fill: rgb(5.052185%,0.000000%,94.947815%);stroke: none;"></path>
  <path d="M37.000000 38.000000L36.881485 36.872299L35.753784 36.990814L35.872299 38.118515Z" style="fill: rgb(4.052734%,0.000000%,95.947266%);stroke: none;"></path>
  <path d="M37.000000 38.000000L36.488190 37.320816L35.809006 37.832626L36.320816 38.511810Z" style="fill: rgb(3.053284%,0.000000%,96.946716%);stroke: none;"></path>
  <path d="M37.000000 38.000000L36.474335 37.787613L36.261948 38.313278L36.787613 38.525665Z" style="fill: rgb(2.053833%,0.000000%,97.946167%);stroke: none;"></path>
  <path d="M37.000000 38.000000L36.720016 38.044342L36.764359 38.324326L37.044342 38.279984Z" style="fill: rgb(1.054382%,0.000000%,98.945618%);stroke: none;"></path>
  <path d="M37.000000 38.000000L37.000000 38.000000L37.000000 38.000000L37.000000 38.000000Z" style="fill: rgb(0.054932%,0.000000%,99.945068%);stroke: none;"></path>
</svg>
