<?xml version="1.0"?>
<!-- Created by MetaPost 2.00 on 2020.04.16:1021 -->
<svg version="1.1" xmlns="http://www.w3.org/2000/svg" xmlns:xlink="http://www.w3.org/1999/xlink" width="64.316223" height="93.326096" viewBox="0 0 64.316223 93.326096">
<!-- Original BoundingBox: -1.417328 -1.417328 62.898895 91.908768 -->
  <path d="M1.000000 91.000000l0 0" style="stroke:rgb(0.000000%,0.000000%,0.000000%); stroke-width: 2.834641;stroke-linecap: round;stroke-linejoin: round;stroke-miterlimit: 10.000000;fill: none;"></path>
  <path d="M61.000000 51.000000l0 0" style="stroke:rgb(0.000000%,0.000000%,0.000000%); stroke-width: 2.834641;stroke-linecap: round;stroke-linejoin: round;stroke-miterlimit: 10.000000;fill: none;"></path>
  <path d="M41.000000 1.000000l0 0" style="stroke:rgb(0.000000%,0.000000%,0.000000%); stroke-width: 2.834641;stroke-linecap: round;stroke-linejoin: round;stroke-miterlimit: 10.000000;fill: none;"></path>
  <path d="M11.000000 21.000000l0 0" style="stroke:rgb(0.000000%,0.000000%,0.000000%); stroke-width: 2.834641;stroke-linecap: round;stroke-linejoin: round;stroke-miterlimit: 10.000000;fill: none;"></path>
  <path d="M31.000000 41.000000l0 0" style="stroke:rgb(0.000000%,0.000000%,0.000000%); stroke-width: 2.834641;stroke-linecap: round;stroke-linejoin: round;stroke-miterlimit: 10.000000;fill: none;"></path>
  <path d="M1.000000 91.000000L61.000000 51.000000L41.000000 1.000000L11.000000 21.000000L31.000000 41.000000" style="stroke:rgb(0.000000%,0.000000%,100.000000%); stroke-width: 0.500000;stroke-linecap: round;stroke-linejoin: round;stroke-miterlimit: 10.000000;fill: none;"></path>
  <path d="M1.000000 91.000000C27.764633 92.845428,52.409393 76.415588,61.000000 51.000000C68.098755 29.998123,60.762527 6.424820,41.000000 1.000000C26.357147 -3.019470,11.480637 6.497803,11.000000 21.000000C10.628952 32.195786,19.804214 41.371048,31.000000 41.000000" style="stroke:rgb(100.000000%,0.000000%,0.000000%); stroke-width: 0.500000;stroke-linecap: round;stroke-linejoin: round;stroke-miterlimit: 10.000000;fill: none;"></path>
  <path d="M1.000000 91.000000C27.979721 93.680847,53.097809 76.935455,61.000000 51.000000C67.218521 30.590454,60.070145 7.979523,41.000000 1.000000C24.315155 -5.106522,7.717499 6.566650,11.000000 21.000000C13.203674 30.689667,24.384445 33.936539,31.000000 41.000000C51.855484 63.267471,30.462112 98.923080,1.000000 91.000000" style="stroke:rgb(0.000000%,100.000000%,0.000000%); stroke-width: 0.500000;stroke-linecap: round;stroke-linejoin: round;stroke-miterlimit: 10.000000;fill: none;"></path>
</svg>
