<?xml version="1.0"?>
<!-- Created by MetaPost 2.00 on 2020.04.16:1021 -->
<svg version="1.1" xmlns="http://www.w3.org/2000/svg" xmlns:xlink="http://www.w3.org/1999/xlink" width="170.578705" height="170.578705" viewBox="0 0 170.578705 170.578705">
<!-- Original BoundingBox: -85.289352 -85.289352 85.289352 85.289352 -->
  <path d="M85.000000 -0.039352C131.965927 -0.039352,170.039352 38.034073,170.039352 85.000000C170.039352 131.965927,131.965927 170.039352,85.000000 170.039352C28.307098 170.039352,28.307098 85.000000,85.000000 85.000000C141.692902 85.000000,141.692902 -0.039352,85.000000 -0.039352Z" style="fill: rgb(0.000000%,0.000000%,0.000000%);stroke: none;"></path>
  <path d="M85.000000 -0.039352C131.965927 -0.039352,170.039352 38.034073,170.039352 85.000000C170.039352 131.965927,131.965927 170.039352,85.000000 170.039352C38.034073 170.039352,-0.039352 131.965927,-0.039352 85.000000C-0.039352 38.034073,38.034073 -0.039352,85.000000 -0.039352Z" style="stroke:rgb(0.000000%,0.000000%,0.000000%); stroke-width: 0.500000;stroke-linecap: round;stroke-linejoin: round;stroke-miterlimit: 10.000000;fill: none;"></path>
  <path d="M91.377701 42.480316C91.377701 40.788773,90.705627 39.166718,89.509613 37.970703C88.313599 36.774689,86.691544 36.102615,85.000000 36.102615C83.308456 36.102615,81.686401 36.774689,80.490387 37.970703C79.294373 39.166718,78.622299 40.788773,78.622299 42.480316C78.622299 44.171860,79.294373 45.793915,80.490387 46.989929C81.686401 48.185944,83.308456 48.858017,85.000000 48.858017C86.691544 48.858017,88.313599 48.185944,89.509613 46.989929C90.705627 45.793915,91.377701 44.171860,91.377701 42.480316Z" style="fill: rgb(0.000000%,0.000000%,0.000000%);stroke: none;"></path>
  <path d="M91.377701 127.519684C91.377701 125.828140,90.705627 124.206085,89.509613 123.010071C88.313599 121.814056,86.691544 121.141983,85.000000 121.141983C83.308456 121.141983,81.686401 121.814056,80.490387 123.010071C79.294373 124.206085,78.622299 125.828140,78.622299 127.519684C78.622299 129.211227,79.294373 130.833282,80.490387 132.029297C81.686401 133.225311,83.308456 133.897385,85.000000 133.897385C86.691544 133.897385,88.313599 133.225311,89.509613 132.029297C90.705627 130.833282,91.377701 129.211227,91.377701 127.519684Z" style="fill: rgb(100.000000%,100.000000%,100.000000%);stroke: none;"></path>
</svg>
